<svg xmlns="http://www.w3.org/2000/svg" version="1.1" xmlns:xlink="http://www.w3.org/1999/xlink" xmlns:svgjs="http://svgjs.dev/svgjs" width="1500" height="431" viewBox="0 0 1500 431"><g transform="matrix(1,0,0,1,-0.9084522071641459,-0.7523890204282679)"><svg viewBox="0 0 396 114" data-background-color="#f8f8f8" preserveAspectRatio="xMidYMid meet" height="431" width="1500" xmlns="http://www.w3.org/2000/svg" xmlns:xlink="http://www.w3.org/1999/xlink"><g id="tight-bounds" transform="matrix(1,0,0,1,0.24008861730862918,0.19900776874436588)"><svg viewBox="0 0 395.52 113.60198446251127" height="113.60198446251127" width="395.52"><g><svg viewBox="0 0 395.52 113.60198446251127" height="113.60198446251127" width="395.52"><g><svg viewBox="0 0 395.52 113.60198446251127" height="113.60198446251127" width="395.52"><g id="textblocktransform"><svg viewBox="0 0 395.52 113.60198446251127" height="113.60198446251127" width="395.52" id="textblock"><g><svg viewBox="0 0 395.52 113.60198446251127" height="113.60198446251127" width="395.52"><path d="M394.594 24.365C392.735 12.574 387.435 9.295 387.435 9.295 371.165-2.85 350.86-0.232 332.619 1.513 300.414 1.584 268.339 4.178 236.208 5.569 168.767 5.782 100.749 2.291 33.643 10.899 27.339 13.541-6.54 11.418 1.121 25.875 3.129 31.889 10.456 38.563 10.232 44.081 11.236 45.048 12.631 42.831 13.226 44.223 15.309 47.973 18.711 46.204 21.501 48.421 17.614 54.34 20.403 59.269 23.062 64.434 18.377 65.778 12.371 65.142 9.675 69.599 9.396 72.83 7.89 72.217 6.235 72.075 5.026 71.981 2.59 72.335 2.999 73.349 4.394 76.816-1.594 78.82 2.162 82.216-0.422 85.895 3.948 89.079 3.353 93.065 3.278 93.867 3.687 94.551 4.338 94.739 7.22 95.753 3.018 97.734 3.464 99.88 33.029 114.549 65.104 104.409 95.394 111.153 103.259 106.437 97.346 112.828 100.489 111.837 102.943 110.682 104.728 115.469 107.499 112.757 107.927 111.979 107.276 110.139 108.8 110.493 109.6 110.682 110.307 110.635 110.418 109.55 110.586 107.922 109.117 108.937 108.726 108.088 112.947 103.795 111.906 114.007 115.866 113.583 115.68 112.333 114.528 110.54 116.889 110.776 119.232 108.984 119.306 107.498 121.389 111.531 121.463 112.403 121.835 113.017 122.43 113.441 128.938 109.054 135.409 114.998 142.233 113.017 146.417 110.847 150.433 114.196 154.672 113.37 156.16 112.71 157.666 111.531 159.098 113.512 176.632 113.936 195.319 112.168 211.943 113.583 256.364 110.941 303.836 114.667 350.674 111.177 361.719 109.833 373.192 107.922 383.958 106.39 383.958 106.39 392.679 102.192 392.679 83.325S394.538 66.816 394.817 51.793C395.096 36.77 396.398 36.157 394.538 24.365Z" opacity="1" fill="#61777f" data-fill-palette-color="tertiary"></path><g transform="matrix(1,0,0,1,55.76832,26.230666666666668)"><svg width="283.98335999999995" viewBox="3.35 -29.95 166.03 35.75" height="61.14065112917794" data-palette-color="#f8f8f8"><path d="M10.1 0.6L10.1 0.6Q8.2 0.6 6.68 0.18 5.15-0.25 4.25-1.65 3.35-3.05 3.35-5.9L3.35-5.9 3.35-23.45Q3.35-26.35 4.25-27.73 5.15-29.1 6.73-29.53 8.3-29.95 10.2-29.95L10.2-29.95Q12.15-29.95 13.68-29.5 15.2-29.05 16.1-27.68 17-26.3 17-23.45L17-23.45 17-19.05 16.2-19.05 16.2-23.65Q16.2-26.05 15.43-27.23 14.65-28.4 13.3-28.78 11.95-29.15 10.15-29.15L10.15-29.15Q8.3-29.15 6.95-28.73 5.6-28.3 4.88-27.08 4.15-25.85 4.15-23.35L4.15-23.35 4.15-5.8Q4.15-3.4 4.98-2.2 5.8-1 7.18-0.6 8.55-0.2 10.15-0.2L10.15-0.2Q11.9-0.2 13.28-0.6 14.65-1 15.43-2.2 16.2-3.4 16.2-5.8L16.2-5.8 16.2-9.45 17-9.45 17-5.9Q17-3 16.1-1.63 15.2-0.25 13.65 0.18 12.1 0.6 10.1 0.6ZM27.95 0.2L27.95 0.2Q26.8 0.2 25.57-0.2 24.35-0.6 23.5-1.83 22.65-3.05 22.65-5.6L22.65-5.6 22.65-7.3Q22.65-8.9 23.37-10.1 24.1-11.3 25.12-12.13 26.15-12.95 27.12-13.48 28.1-14 28.55-14.25L28.55-14.25Q30.55-15.35 31.67-16.18 32.8-17 33.3-17.88 33.8-18.75 33.8-20L33.8-20 33.8-20.7Q33.8-22.4 33.07-23.15 32.35-23.9 31.25-24.1 30.15-24.3 29-24.3L29-24.3Q26.8-24.3 25.72-23.55 24.65-22.8 24.32-21.55 24-20.3 24-18.75L24-18.75 24-16.7 23.2-16.7 23.2-18.85Q23.2-21.75 24.35-23.43 25.5-25.1 29-25.1L29-25.1Q31.7-25.1 32.87-24.4 34.05-23.7 34.32-22.58 34.6-21.45 34.6-20.1L34.6-20.1 34.6 0 33.85 0 33.85-3.65Q33.25-1.9 31.72-0.85 30.2 0.2 27.95 0.2ZM28.1-0.6L28.1-0.6Q30.3-0.6 31.52-1.55 32.75-2.5 33.27-4.15 33.8-5.8 33.8-7.85L33.8-7.85 33.8-17.05Q33-15.95 31.62-15.13 30.25-14.3 28.8-13.45L28.8-13.45Q27.55-12.75 26.32-11.98 25.1-11.2 24.27-10 23.45-8.8 23.45-6.9L23.45-6.9 23.45-5.6Q23.45-3.25 24.2-2.2 24.95-1.15 26.05-0.88 27.15-0.6 28.1-0.6ZM41.85 0L41.05 0 41.05-24.75 41.75-24.75 41.85-22.25Q42.4-23.4 43.67-24.28 44.95-25.15 47.3-25.15L47.3-25.15Q50.25-25.15 51.45-24.08 52.65-23 53-21.5L53-21.5Q53.55-23.2 55-24.18 56.45-25.15 58.75-25.15L58.75-25.15Q60.85-25.15 62.07-24.58 63.3-24 63.85-23.03 64.4-22.05 64.55-20.9 64.7-19.75 64.7-18.6L64.7-18.6 64.7 0 63.9 0 63.9-18.15Q63.9-19.65 63.65-21.08 63.4-22.5 62.32-23.43 61.25-24.35 58.75-24.35L58.75-24.35Q56-24.35 54.72-22.75 53.45-21.15 53.25-18.6L53.25-18.6 53.25 0 52.45 0 52.45-18.15Q52.45-19.65 52.2-21.08 51.95-22.5 50.87-23.43 49.8-24.35 47.3-24.35L47.3-24.35Q44.55-24.35 43.3-22.98 42.05-21.6 41.85-19.45L41.85-19.45 41.85 0ZM71.94 5.8L71.14 5.8 71.14-24.75 71.84-24.75 71.94-22.25Q72.19-23.25 73.37-24.2 74.54-25.15 77.14-25.15L77.14-25.15Q79.24-25.15 80.47-24.58 81.69-24 82.24-23.03 82.79-22.05 82.94-20.9 83.09-19.75 83.09-18.6L83.09-18.6 83.09-6.2Q83.09-4.65 82.79-3.15 82.49-1.65 81.24-0.65 79.99 0.35 77.14 0.35L77.14 0.35Q74.64 0.35 73.44-0.38 72.24-1.1 71.94-1.9L71.94-1.9 71.94 5.8ZM77.14-0.45L77.14-0.45Q79.09-0.45 80.14-1 81.19-1.55 81.64-2.43 82.09-3.3 82.19-4.33 82.29-5.35 82.29-6.35L82.29-6.35 82.29-18.45Q82.29-19.95 82.07-21.3 81.84-22.65 80.79-23.5 79.74-24.35 77.14-24.35L77.14-24.35Q74.74-24.35 73.64-23.48 72.54-22.6 72.24-21.2 71.94-19.8 71.94-18.15L71.94-18.15 71.94-6.35Q71.94-5.35 72.04-4.33 72.14-3.3 72.59-2.43 73.04-1.55 74.12-1 75.19-0.45 77.14-0.45ZM96.34 0.6L96.34 0.6Q94.44 0.6 92.87 0.18 91.29-0.25 90.34-1.65 89.39-3.05 89.39-5.9L89.39-5.9 89.39-23.45Q89.39-26.35 90.34-27.73 91.29-29.1 92.92-29.53 94.54-29.95 96.49-29.95L96.49-29.95Q98.49-29.95 99.99-29.5 101.49-29.05 102.37-27.68 103.24-26.3 103.24-23.45L103.24-23.45 103.24-20.05 102.44-20.05 102.44-23.4Q102.44-25.85 101.74-27.08 101.04-28.3 99.69-28.73 98.34-29.15 96.39-29.15L96.39-29.15Q94.49-29.15 93.09-28.73 91.69-28.3 90.94-27.08 90.19-25.85 90.19-23.4L90.19-23.4 90.19-6.25Q90.19-3.6 91.02-2.3 91.84-1 93.27-0.6 94.69-0.2 96.39-0.2L96.39-0.2Q98.94-0.2 100.69-1.8 102.44-3.4 102.44-6.25L102.44-6.25 102.44-12.8 97.09-12.8 97.09-13.55 103.24-13.55 103.24 0 102.44 0 102.44-3.15Q102.04-1.8 100.34-0.6 98.64 0.6 96.34 0.6ZM115.89 0.4L115.89 0.4Q113.79 0.4 112.56-0.18 111.34-0.75 110.79-1.73 110.24-2.7 110.09-3.85 109.94-5 109.94-6.15L109.94-6.15 109.94-24.75 110.74-24.75 110.74-6.6Q110.74-5.15 110.99-3.7 111.24-2.25 112.31-1.33 113.39-0.4 115.89-0.4L115.89-0.4Q118.64-0.4 119.89-1.78 121.14-3.15 121.34-5.3L121.34-5.3 121.34-24.75 122.14-24.75 122.14 0 121.44 0 121.34-2.5Q120.79-1.35 119.51-0.48 118.24 0.4 115.89 0.4ZM134.49 0.35L134.49 0.35Q132.34 0.35 131.11-0.23 129.89-0.8 129.34-1.75 128.79-2.7 128.64-3.88 128.49-5.05 128.49-6.2L128.49-6.2 128.49-18.6Q128.49-20.15 128.84-21.65 129.19-23.15 130.46-24.15 131.74-25.15 134.49-25.15L134.49-25.15Q137.29-25.15 138.54-24.2 139.79-23.25 140.11-21.75 140.44-20.25 140.44-18.6L140.44-18.6 140.44-13.15 129.29-13.15 129.29-6.35Q129.29-4.9 129.56-3.53 129.84-2.15 130.94-1.3 132.04-0.45 134.49-0.45L134.49-0.45Q136.94-0.45 138.01-1.3 139.09-2.15 139.36-3.5 139.64-4.85 139.64-6.35L139.64-6.35 139.64-8.35 140.44-8.35 140.44-6.2Q140.44-4.65 140.14-3.15 139.84-1.65 138.59-0.65 137.34 0.35 134.49 0.35ZM129.29-18.15L129.29-13.95 139.64-13.95 139.64-18.15Q139.64-19.9 139.39-21.3 139.14-22.7 138.06-23.53 136.99-24.35 134.49-24.35L134.49-24.35Q132.29-24.35 131.16-23.58 130.04-22.8 129.66-21.43 129.29-20.05 129.29-18.15L129.29-18.15ZM151.28 0.3L151.28 0.3Q148.68 0.3 147.03-0.95 145.38-2.2 145.38-4.95L145.38-4.95 145.38-8.3 146.18-8.3 146.18-4.95Q146.18-2.75 147.61-1.63 149.03-0.5 151.28-0.5L151.28-0.5Q153.63-0.5 155.06-1.5 156.48-2.5 156.48-4.8L156.48-4.8 156.48-6.7Q156.48-8.6 155.68-9.68 154.88-10.75 153.66-11.43 152.43-12.1 151.03-12.7L151.03-12.7Q149.48-13.4 148.18-14.1 146.88-14.8 146.11-15.83 145.33-16.85 145.33-18.5L145.33-18.5 145.33-20.2Q145.33-22.3 146.93-23.7 148.53-25.1 151.38-25.1L151.38-25.1Q153.98-25.1 155.66-23.93 157.33-22.75 157.33-20.05L157.33-20.05 157.33-16.8 156.53-16.8 156.53-19.75Q156.53-22.15 155.21-23.23 153.88-24.3 151.38-24.3L151.38-24.3Q148.88-24.3 147.51-23.05 146.13-21.8 146.13-19.75L146.13-19.75 146.13-18.85Q146.13-17.2 146.98-16.2 147.83-15.2 149.03-14.58 150.23-13.95 151.28-13.45L151.28-13.45Q152.78-12.8 154.16-12.03 155.53-11.25 156.41-10.03 157.28-8.8 157.28-6.7L157.28-6.7 157.28-4.8Q157.28-2.85 156.43-1.75 155.58-0.65 154.23-0.18 152.88 0.3 151.28 0.3ZM166.43 0L166.43 0Q164.48 0 163.63-1.18 162.78-2.35 162.78-4.65L162.78-4.65 162.78-23.95 160.88-23.95 160.88-24.65 162.78-24.75 162.93-29.6 163.58-29.6 163.58-24.75 169.38-24.75 169.38-23.95 163.58-23.95 163.58-4.4Q163.58-3 164.13-1.88 164.68-0.75 166.38-0.75L166.38-0.75Q167.08-0.75 167.78-0.83 168.48-0.9 169.38-1L169.38-1 169.38-0.2Q169.03-0.15 168.21-0.08 167.38 0 166.43 0Z" opacity="1" transform="matrix(1,0,0,1,0,0)" fill="#f8f8f8" class="wordmark-text-0" data-fill-palette-color="quaternary" id="text-0"></path></svg></g></svg></g></svg></g></svg></g><g></g></svg></g><defs></defs></svg><rect width="395.52" height="113.60198446251127" fill="none" stroke="none" visibility="hidden"></rect></g></svg></g></svg>